PathFileType	4	(X/Y/Z)	2_2_43_p0_0-393_filt_butterworth.trc
DataRate	CameraRate	NumFrames	NumMarkers	Units	OrigDataRate	OrigDataStartFrame	OrigNumFrames
59.0	59.0	5	27	m	59.0	147	393
Frame#	Time	RHip			RKnee			RAnkle			RBigToe			RSmallToe			RHeel			LHip			LKnee			LAnkle			LBigToe			LSmallToe			LHeel			Neck			Head			Nose			RShoulder			RElbow			RWrist			RThumb			RIndex			RPinky			LShoulder			LElbow			LWrist			LThumb			LIndex			LPinky			
		X1	Y1	Z1	X2	Y2	Z2	X3	Y3	Z3	X4	Y4	Z4	X5	Y5	Z5	X6	Y6	Z6	X7	Y7	Z7	X8	Y8	Z8	X9	Y9	Z9	X10	Y10	Z10	X11	Y11	Z11	X12	Y12	Z12	X13	Y13	Z13	X14	Y14	Z14	X15	Y15	Z15	X16	Y16	Z16	X17	Y17	Z17	X18	Y18	Z18	X19	Y19	Z19	X20	Y20	Z20	X21	Y21	Z21	X22	Y22	Z22	X23	Y23	Z23	X24	Y24	Z24	X25	Y25	Z25	X26	Y26	Z26	X27	Y27	Z27	
147	2.4915254237288136	0.32802480406444734	0.5490277989140718	0.9988475693791884	0.3236641789549957	0.692917299313853	1.4218560045014608	0.2880562934278921	0.8986655543307144	1.8214245935124245	0.29194948574671487	0.6169644723565898	1.865371928404989	0.33941656451338587	0.6951515792870322	1.8794029968114399	0.2792050827320767	0.9317116064766693	1.8780894572096392	0.12425957020275613	0.5414764855279988	1.0157134025869627	0.11646012830271611	0.6779139553915355	1.4140961230869817	0.1337955382096024	0.8861695266681276	1.8250118152339097	0.12476047234695803	0.7037842460671062	1.9137447704485813	0.08430745646795865	0.692573938995658	1.8762116310809613	0.14016474164223586	0.9328452809849476	1.8646082159371122	0.20838762688623377	0.3882765451822666	0.4233657755019021	0.1842095245783028	0.26329942823136415	0.18746616725253817	0.21310282602051034	0.1907260884905431	0.32491506214998284	0.3915775247639849	0.43947914865719595	0.4923425572531334	0.4334121032953544	0.513280414959717	0.7454245434915159	0.4507060439211076	0.5057921953739303	1.0044538690403684	0.39514626165959216	0.4493684454215758	1.1075622765008628	0.42300190265308746	0.4484795046819206	1.1294872328554433	0.44814966507778925	0.5742344717686414	1.1348054189580359	0.04814402445448264	0.44896333207205263	0.511092201131695	-0.008229854170108743	0.4482761790877945	0.776782551000319	-0.026561040384775754	0.46947140133859555	1.0249819159518858	0.004249071906014382	0.5078451813974134	1.1328178253667032	-0.007781340708678639	0.5135202376182914	1.1649066169565234	-0.014440006475968978	0.5397535710463227	1.162050749882895
148	2.5084745762711864	0.32810623598363403	0.5494439505757801	0.9989774976706637	0.32365956614345937	0.6929144889563367	1.4218594175237493	0.2880794145191893	0.8987377319932197	1.8215104003296863	0.2919056419352402	0.6167000376221345	1.864741895880388	0.33942758533425094	0.6950530391008256	1.8793185688561946	0.27921463108376704	0.9317553826656564	1.8782263196604507	0.12420373415411332	0.5414834853930746	1.0157242479818407	0.11647696651245791	0.6780090545160476	1.414113369074054	0.13379251382880686	0.8861792307184946	1.825065417120155	0.12429687518144336	0.7031429737445442	1.9135698276787085	0.0843179204325648	0.6976820145944378	1.8758266935295604	0.14017819620884023	0.9329453347544443	1.8646931960238589	0.20841275336914994	0.38886248180464555	0.4237124301913821	0.18480089733854957	0.26214938332476523	0.18772411938029962	0.21313862567636882	0.19155502858824391	0.3259156876441834	0.3915859870966649	0.43945757328281326	0.4923472383367328	0.4333895751356338	0.5136873746253487	0.7465716294706083	0.4507305465014301	0.5056513625623346	1.0046256528339932	0.39514842035580805	0.44943475535347976	1.1076357433251587	0.42309585655540805	0.44815861452895145	1.1293756089061424	0.44810103504050436	0.57437526244665	1.1348112683723603	0.04812659187057809	0.4490467899710311	0.5110480601959557	-0.00827041902287754	0.4476021763925508	0.7758231231487843	-0.02640283627969666	0.470091800224501	1.025462061050782	0.00468381296504737	0.5079409760273557	1.1336064276713902	-0.0076484638143840605	0.5134851989366181	1.1665823972030815	-0.014413474154534959	0.5397454376397981	1.1620468768242425
149	2.5254237288135597	0.3281628880264746	0.5496535617175344	0.9994057380125206	0.3236476831530501	0.6929042669873349	1.4218740814357487	0.288081274922481	0.8987630208666608	1.8214695310216606	0.29218347350105195	0.6169258770986122	1.8657836797850103	0.3394544802011144	0.6951760855124892	1.879370377548231	0.2791062084262876	0.9313666721853687	1.8776507161670852	0.12418759504236308	0.5414477208980043	1.0157370688082261	0.1164725722306821	0.6779646874080193	1.4140502194009443	0.13379243886816233	0.886210268206936	1.8251000365211703	0.1241729375451906	0.7028741000460754	1.9135082473867164	0.0846318778897723	0.7016470428140584	1.8766622709675285	0.14017759016424455	0.9329912687462432	1.8647604870681564	0.20840810110042945	0.38903488680734455	0.42373200877240047	0.18621370999822562	0.2592438107289993	0.1883917570446222	0.2131455647617836	0.19258577449390468	0.32764655895717726	0.3915954183359839	0.43945396266512965	0.49235369713119903	0.433352586145133	0.5140848941092362	0.7478365111419347	0.45071973162258117	0.505617096477071	1.0047754690286888	0.3951379973338434	0.44964343008531255	1.1077326033051624	0.4230955868011663	0.4482406044604398	1.1293797717685317	0.44805627169552015	0.5744406775332636	1.1348259274061123	0.048091075956905094	0.44903700716480477	0.5110228977415785	-0.008290377589868857	0.4473436484854282	0.7754394165087756	-0.026251049715593958	0.4706769046796736	1.0262143427724504	0.0049958803110198	0.5078726621270939	1.1338012569448117	-0.007548987070716712	0.5134125958597879	1.1676602041442188	-0.014396505572991686	0.5397151610610484	1.1620422818352059
150	2.542372881355932	0.32821683802032736	0.5497612926105384	1.0004153567746557	0.3236196001361547	0.6928809867104777	1.421882512502548	0.2880742672133799	0.8987264575816194	1.8214305488463858	0.29280141043405655	0.6186851351223627	1.867870720015374	0.33949976341749183	0.695436206930351	1.8795118526444552	0.27881643510396087	0.9303394777659308	1.8760429975156856	0.12419676558142212	0.5413864912375128	1.0157484231593195	0.11645409084431385	0.6778166735663297	1.4139080116469156	0.13379079591202256	0.8862796635127101	1.8251177861256846	0.12420374885213675	0.7029251393857918	1.9135531818202967	0.08515668792639537	0.7032197945788471	1.8785606798678123	0.14019325463347954	0.9329367181396485	1.8647428113291902	0.20839948292452348	0.38890519112401284	0.42367260034555415	0.18805031348259557	0.2553571279282223	0.18929356875116096	0.21322775190821303	0.19339708707415276	0.32934912003623096	0.39160923538721254	0.43945815658242304	0.4923632595286782	0.4333098058249306	0.5143343478590472	0.7483519048186116	0.45072008416145737	0.5055917089720273	1.0048794493267472	0.3951307716596759	0.4499014300473047	1.107822737269305	0.4226502532810027	0.4498135496585591	1.1296369026767867	0.4480132715516744	0.5744302648257601	1.1348441738859776	0.04804328190766393	0.44893350256961717	0.5110314485150969	-0.008289943754016137	0.44742497972821266	0.7755187851487447	-0.02623935126377233	0.4709424911462603	1.026247590563728	0.00503476540066615	0.507878913833737	1.1337126062512153	-0.007543668224795614	0.5133900411821252	1.1678158921998238	-0.014376908684891424	0.539688109143916	1.1620493512438232
151	2.559322033898305	0.3283199910631065	0.5500614570363253	1.0017717888058717	0.32358032268542547	0.6928451313706412	1.4218724551075035	0.28810981342669106	0.8985956830682854	1.8217478095623592	0.29349953767743986	0.6225812430305365	1.8695089089509473	0.33957498441825235	0.6956465688467501	1.8799792435320044	0.27843511284988026	0.9290150941687431	1.8739493174654898	0.12419656211913614	0.5413404693474735	1.0157598433530004	0.11644197338107942	0.6777410228692329	1.4138588368137943	0.13378367599225915	0.8863634673126315	1.8251232503516488	0.12425049570964565	0.7030911567375316	1.9136363226069828	0.08562962474031836	0.7031640225164133	1.880568376725768	0.14027002339876524	0.9326894333850753	1.864628738732108	0.20840022795790672	0.3886544526634238	0.4236452552243208	0.1894220769838244	0.2522617723408424	0.19001672820010862	0.2135712817427881	0.19377692554298243	0.3305536610444742	0.3916112786007422	0.439465217932099	0.49237690885878227	0.4332915884290132	0.5143457070006214	0.747658455377421	0.4507751406060193	0.5054268512952855	1.0049414633420688	0.3950441614625897	0.4500355062926925	1.1078807411844362	0.421385053931973	0.4536025539095713	1.1301821247546853	0.44797677909690226	0.5743614859286055	1.1348619329098293	0.048018842184824016	0.44879552206020434	0.5110663783949453	-0.008274896108948443	0.4477758353922917	0.7759957655363179	-0.026343183729539733	0.4710048041903343	1.025665814664552	0.004835440691646941	0.508140975134368	1.1335832607104297	-0.007673149776093387	0.5135367947803852	1.167427523797259	-0.014352092158242373	0.5396545509857087	1.1620637117673915
